<svg width="334" height="38" viewBox="0 0 334 38" fill="white" xmlns="http://www.w3.org/2000/svg">
<path d="M18.1056 37.2858V22.9631C18.1056 18.4602 17.582 14.5748 12.0022 14.5748C6.42245 14.5748 4.74934 19.639 4.74934 24.3946V37.2858H0.155448V18.1033C0.155448 15.906 0.0531795 12.9388 0 11.4552H4.54071L4.69616 15.5973C6.83561 12.6301 9.49868 11.1465 13.3071 11.1465C20.1959 11.1465 22.6995 14.8795 22.6995 21.2229V37.2818H18.1056V37.2858Z"/>
<path d="M50.9295 37.287C50.7209 36.2124 50.5122 34.7288 50.459 33.6542C48.2664 36.7738 45.3456 37.8484 41.5372 37.8484C36.6324 37.8484 32.3003 35.4426 32.3003 30.1778C32.3003 22.4551 40.9645 21.5329 47.3828 21.5329C48.3237 21.5329 49.2605 21.585 49.9927 21.6371V20.1014C49.9927 16.1118 48.5323 13.8623 44.2002 13.8623C40.9645 13.8623 39.0336 15.0372 38.7227 18.4133H34.2352C34.497 12.7877 39.14 10.9473 44.098 10.9473C50.8313 10.9473 54.1162 13.4533 54.1162 20.2057V29.7207C54.1162 33.0969 54.5866 36.1162 54.9507 37.291H50.9336L50.9295 37.287ZM47.6405 24.2435C43.5703 24.2435 36.8901 24.7046 36.8901 29.9733C36.8901 33.145 39.6554 34.8331 42.6826 34.8331C49.3096 34.8331 49.9886 29.5643 49.9886 24.3477C48.8923 24.2435 48.3728 24.2435 47.6405 24.2435Z"/>
<path d="M66.0081 0.308594H70.6019V37.2901H66.0081V0.308594ZM83.5941 37.2861L70.7574 22.7068L82.6041 11.4035H88.4498L76.1858 22.5545L89.4929 37.2861H83.5941Z"/>
<path d="M114.123 37.287C113.915 36.2124 113.706 34.7288 113.653 33.6542C111.46 36.7738 108.539 37.8484 104.731 37.8484C99.8262 37.8484 95.4941 35.4426 95.4941 30.1778C95.4941 22.4551 104.158 21.5329 110.577 21.5329C111.518 21.5329 112.454 21.585 113.187 21.6371V20.1014C113.187 16.1118 111.726 13.8623 107.394 13.8623C104.158 13.8623 102.227 15.0372 101.917 18.4133H97.4291C97.6909 12.7877 102.334 10.9473 107.292 10.9473C114.025 10.9473 117.31 13.4533 117.31 20.2057V29.7207C117.31 33.0969 117.78 36.1162 118.145 37.291H114.127L114.123 37.287ZM110.834 24.2435C106.764 24.2435 100.084 24.7046 100.084 29.9733C100.084 33.145 102.849 34.8331 105.876 34.8331C112.503 34.8331 113.182 29.5643 113.182 24.3477C112.086 24.2435 111.567 24.2435 110.834 24.2435Z"/>
<path d="M147.152 37.2858V22.9631C147.152 18.4602 146.628 14.5748 141.048 14.5748C135.469 14.5748 133.795 19.639 133.795 24.3946V37.2858H129.202V18.1033C129.202 15.906 129.099 12.9388 129.046 11.4552H133.587L133.742 15.5973C135.882 12.6301 138.545 11.1465 142.353 11.1465C149.242 11.1465 151.746 14.8795 151.746 21.2229V37.2818H147.152V37.2858Z"/>
<path d="M174.339 37.8517C165.936 37.8517 161.347 32.0697 161.347 24.2468C161.347 16.4238 166.198 10.8984 174.392 10.8984C182.586 10.8984 187.282 16.3717 187.282 24.2468C187.282 32.1218 182.533 37.8517 174.339 37.8517ZM174.339 14.1182C168.44 14.1182 166.198 19.1825 166.198 24.2468C166.198 29.311 168.391 34.7843 174.339 34.7843C180.287 34.7843 182.479 29.1586 182.479 24.2468C182.479 19.3349 180.238 14.1182 174.339 14.1182Z"/>
<path d="M192.719 37.9996V35.4414H213.675V37.9996H192.719Z"/>
<path d="M233.617 3.32394C231.061 3.32394 229.339 3.93743 229.339 6.75224V11.4596H235.237V14.5792H229.339V37.2902H224.745V14.5792H219.476V11.4596H224.745V9.0057C224.745 3.78907 225.477 0.00390625 231.842 0.00390625C233.094 0.00390625 234.346 0.0560325 235.651 0.156275V3.4282C234.972 3.37607 234.292 3.32795 233.613 3.32795L233.617 3.32394ZM253.617 3.32394C251.06 3.32394 249.338 3.93743 249.338 6.75224V11.4596H255.237V14.5792H249.338V37.2902H244.744V14.5792H239.475V11.4596H244.744V9.0057C244.744 3.78907 245.477 0.00390625 251.842 0.00390625C253.093 0.00390625 254.345 0.0560325 255.65 0.156275V3.4282C254.971 3.37607 254.292 3.32795 253.617 3.32795V3.32394Z"/>
<path d="M273.379 3.32394C270.823 3.32394 269.101 3.93743 269.101 6.75224V11.4596H274.999V14.5792H269.101V37.2902H264.507V14.5792H259.238V11.4596H264.507V9.0057C264.507 3.78907 265.239 0.00390625 271.604 0.00390625C272.856 0.00390625 274.108 0.0560325 275.413 0.156275V3.4282C274.734 3.37607 274.054 3.32795 273.375 3.32795L273.379 3.32394ZM292.794 3.32394C290.237 3.32394 288.515 3.93743 288.515 6.75224V11.4596H294.414V14.5792H288.515V37.2902H283.921V14.5792H278.652V11.4596H283.921V9.0057C283.921 3.78907 284.653 0.00390625 291.019 0.00390625C292.27 0.00390625 293.522 0.0560325 294.827 0.156275V3.4282C294.148 3.37607 293.469 3.32795 292.79 3.32795L292.794 3.32394Z"/>
<path d="M312.098 3.32394C309.541 3.32394 307.819 3.93743 307.819 6.75224V11.4596H313.718V14.5792H307.819V37.2902H303.225V14.5792H297.957V11.4596H303.225V9.0057C303.225 3.78907 303.958 0.00390625 310.323 0.00390625C311.575 0.00390625 312.826 0.0560325 314.131 0.156275V3.4282C313.452 3.37607 312.773 3.32795 312.094 3.32795L312.098 3.32394ZM331.963 3.32394C329.406 3.32394 327.684 3.93743 327.684 6.75224V11.4596H333.583V14.5792H327.684V37.2902H323.09V14.5792H317.821V11.4596H323.09V9.0057C323.09 3.78907 323.822 0.00390625 330.187 0.00390625C331.439 0.00390625 332.691 0.0560325 333.996 0.156275V3.4282C333.317 3.37607 332.638 3.32795 331.959 3.32795L331.963 3.32394Z"/>
</svg>