<svg width="177" height="24" viewBox="0 0 177 24" fill="none" xmlns="http://www.w3.org/2000/svg">
<path d="M11.4854 22.5681V12.3955C11.4854 9.40464 10.3187 8.46851 8.02455 8.46851C4.59806 8.46851 3.43139 10.5856 3.43139 14.0085V22.5729H0V6.04896H3.28923V9.33743C4.28434 6.78346 6.44611 5.61209 9.18633 5.61209C12.5099 5.61209 14.9118 7.35955 14.9118 11.3201V22.5681H11.4854Z" fill="black"/>
<path d="M28.2212 22.5684C28.1183 22.2659 28.0496 20.7201 28.0153 20.3169C27.1232 21.7955 25.2359 23.0053 22.1525 23.0053C18.3829 23.0053 16.6329 21.2242 16.6329 18.171C16.6329 13.8407 20.128 13.303 24.1771 12.7654C26.6134 12.4293 27.7751 12.2613 27.9124 11.0515C27.9124 9.27046 26.7114 8.22871 24.2457 8.22871C21.6035 8.22871 20.5447 9.47209 20.3731 11.4212H17.1868C17.2555 7.99828 19.1084 5.61234 24.3878 5.61234C29.6673 5.61234 31.4173 7.96468 31.4173 12.1269V22.5684H28.2212ZM27.981 14.0424C27.4663 14.6136 26.0251 14.7481 24.2114 15.0169C21.5006 15.4538 20.0643 16.025 20.0643 18.0701C20.0643 19.7168 21.0251 20.5905 22.981 20.5905C25.829 20.5905 27.8487 18.7758 27.9516 16.4283L27.9859 14.0424H27.981Z" fill="black"/>
<path d="M44.7117 22.5681L40.1872 14.5078L37.0352 17.4986V22.5681H33.5744V0.00488284H37.0352V13.6389L44.4764 6.04896H48.6921L42.6578 12.1938L48.5549 22.5681H44.7117Z" fill="black"/>
<path d="M61.1042 22.5684C61.0013 22.2659 60.9326 20.7201 60.8983 20.3169C60.0062 21.7955 58.1189 23.0053 55.0355 23.0053C51.2659 23.0053 49.5159 21.2242 49.5159 18.171C49.5159 13.8407 53.011 13.303 57.0601 12.7654C59.4963 12.4293 60.6581 12.2613 60.7954 11.0515C60.7954 9.27046 59.5944 8.22871 57.1287 8.22871C54.4865 8.22871 53.4277 9.47209 53.2561 11.4212H50.0698C50.1384 7.99828 51.9914 5.61234 57.2708 5.61234C62.5503 5.61234 64.3003 7.96468 64.3003 12.1269V22.5684H61.1042ZM60.864 14.0424C60.3493 14.6136 58.9081 14.7481 57.0944 15.0169C54.3836 15.4538 52.9473 16.025 52.9473 18.0701C52.9473 19.7168 53.9081 20.5905 55.864 20.5905C58.712 20.5905 60.7316 18.7758 60.8346 16.4283L60.8689 14.0424H60.864Z" fill="black"/>
<path d="M77.9416 22.5681V12.3955C77.9416 9.40464 76.7749 8.46851 74.4808 8.46851C71.0543 8.46851 69.8876 10.5856 69.8876 14.0085V22.5729H66.4612V6.04896H69.7504V9.33743C70.7455 6.78346 72.9073 5.61209 75.6475 5.61209C78.9759 5.61209 81.373 7.35955 81.373 11.3201V22.5681H77.9416Z" fill="black"/>
<path d="M83.1528 14.3112C83.1528 9.07364 86.4126 5.61234 91.6234 5.61234C96.8343 5.61234 99.9911 9.03523 99.9911 14.2776C99.9911 19.5199 96.7705 23.0101 91.5891 23.0101C86.4077 23.0101 83.1528 19.4191 83.1528 14.3112ZM96.5254 14.3112C96.5254 10.5522 94.8097 8.46875 91.6234 8.46875C88.4371 8.46875 86.6871 10.5522 86.6871 14.3112C86.6871 18.0701 88.4371 20.1872 91.6234 20.1872C94.8097 20.1872 96.5254 18.1037 96.5254 14.3112Z" fill="black"/>
<path d="M100.782 22.5681V20.8878H113.841V22.5681H100.782Z" fill="black"/>
<path d="M116.238 22.5681V8.46362H113.801V6.04407H116.238C116.238 2.01629 118.571 0 123.233 0V2.7556C120.488 2.7556 119.635 3.69654 119.635 6.04407H123.336V8.46362H119.635V22.5681H116.238Z" fill="black"/>
<path d="M126.972 22.5681V8.46362H124.536V6.04407H126.972C126.972 2.01629 129.305 0 133.967 0V2.7556C131.222 2.7556 130.369 3.69654 130.369 6.04407H134.07V8.46362H130.369V22.5681H126.972Z" fill="black"/>
<path d="M137.703 22.5681V8.46362H135.266V6.04407H137.703C137.703 2.01629 140.036 0 144.698 0V2.7556C141.953 2.7556 141.1 3.69654 141.1 6.04407H144.801V8.46362H141.1V22.5681H137.703Z" fill="black"/>
<path d="M148.437 22.5681V8.46371H146.001V6.04416H148.437C148.437 2.01637 150.77 8.21454e-05 155.432 8.21454e-05V2.75568C152.687 2.75568 151.834 3.69662 151.834 6.04416H155.535V8.46371H151.834V22.5681H148.437Z" fill="black"/>
<path d="M159.168 22.5681V8.46371H156.731V6.04416H159.168C159.168 2.01637 161.501 8.21454e-05 166.163 8.21454e-05V2.75568C163.418 2.75568 162.565 3.69662 162.565 6.04416H166.266V8.46371H162.565V22.5681H159.168Z" fill="black"/>
<path d="M169.902 22.5681V8.46362H167.466V6.04407H169.902C169.902 2.01629 172.235 0 176.897 0V2.7556C174.152 2.7556 173.299 3.69654 173.299 6.04407H177V8.46362H173.299V22.5681H169.902Z" fill="black"/>
</svg>
